<?xml version="1.0" encoding="UTF-8"?>
<svg version="1.1" xmlns="http://www.w3.org/2000/svg" width="1572" height="1538">
<path d="M0 0 C32.84041852 28.27264081 56.25207692 69.36179902 60 113 C62.91993749 162.92286021 50.5331914 209.36580009 17.05078125 247.38671875 C-11.03703323 278.66571395 -52.58368385 301.63609063 -95.11419678 304.12365723 C-145.29766421 306.44004758 -191.22797406 293.52049794 -229.07617188 259.53369141 C-260.12405473 231.08520831 -282.26475922 189.15792213 -284.22753906 146.63525391 C-286.08332369 96.32706775 -272.3842396 50.77600234 -238 13.25 C-177.80851976 -51.02000789 -76.20579822 -57.9475541 0 0 Z " fill="#020202" transform="translate(1200,1234)"/>
<path d="M0 0 C32.84041852 28.27264081 56.25207692 69.36179902 60 113 C62.91993749 162.92286021 50.5331914 209.36580009 17.05078125 247.38671875 C-11.03703323 278.66571395 -52.58368385 301.63609063 -95.11419678 304.12365723 C-145.29766421 306.44004758 -191.22797406 293.52049794 -229.07617188 259.53369141 C-260.12405473 231.08520831 -282.26475922 189.15792213 -284.22753906 146.63525391 C-286.08332369 96.32706775 -272.3842396 50.77600234 -238 13.25 C-177.80851976 -51.02000789 -76.20579822 -57.9475541 0 0 Z " fill="#020202" transform="translate(284,631)"/>
<path d="M0 0 C32.84041852 28.27264081 56.25207692 69.36179902 60 113 C62.91993749 162.92286021 50.5331914 209.36580009 17.05078125 247.38671875 C-11.03703323 278.66571395 -52.58368385 301.63609063 -95.11419678 304.12365723 C-145.29766421 306.44004758 -191.22797406 293.52049794 -229.07617188 259.53369141 C-260.12405473 231.08520831 -282.26475922 189.15792213 -284.22753906 146.63525391 C-286.08332369 96.32706775 -272.3842396 50.77600234 -238 13.25 C-177.80851976 -51.02000789 -76.20579822 -57.9475541 0 0 Z " fill="#020202" transform="translate(440,40)"/>
<path d="M0 0 C2.04119788 1.61594832 4.04072937 3.2856382 6 5 C8.75667195 6.60667476 11.5619708 8.0952488 14.3828125 9.5859375 C17.40964106 11.22132845 20.1710491 13.04667676 23 15 C23.804375 15.474375 24.60875 15.94875 25.4375 16.4375 C27.49970629 17.69494286 29.37814374 19.0020501 31.3125 20.4375 C34.38623547 22.66629087 37.53826681 24.32750033 40.953125 25.96875 C45.38577416 28.20199309 49.57802017 30.8025433 53.375 34 C55.80502778 35.85144974 58.01255197 37.05260203 60.75 38.375 C64.8573012 40.36842624 68.5556943 42.60860233 72.3125 45.19140625 C75.86702649 47.58347858 79.49162342 49.85507522 83.125 52.125 C83.79418457 52.54483154 84.46336914 52.96466309 85.15283203 53.3972168 C88.29891272 55.3605108 91.45735651 57.27464231 94.69140625 59.08984375 C97.54985966 60.74011968 100.16067522 62.48138393 102.8125 64.4375 C106.98177815 67.41192405 111.22193475 69.69075991 115.8359375 71.890625 C118.52590177 73.26959585 120.64748587 75.10651302 123 77 C124.75894457 77.9799834 126.53149599 78.93570336 128.3125 79.875 C132.58124656 82.14098343 136.30152634 84.64481985 140.09375 87.62109375 C142.60183867 89.43534641 145.23791849 90.74969294 148.04296875 92.04296875 C155.39160962 95.63661548 162.28778608 100.49993757 169.0625 105.0625 C172.37501483 107.24735021 175.76338781 109.27388226 179.171875 111.3046875 C184.47878879 114.48590378 189.73412056 117.75148873 195 121 C196.1456881 121.70466327 197.29152144 122.40909045 198.4375 123.11328125 C207.80180481 128.86842692 207.80180481 128.86842692 212 131.5 C222.42848689 138.07830763 222.42848689 138.07830763 233.0625 144.3125 C235.55654483 145.74524915 237.70779149 147.28084362 240 149 C241.64070362 149.9516081 243.28286217 150.90095725 244.9375 151.828125 C249.00495304 154.13917786 252.99387734 156.58473312 257 159 C257.87011719 159.51820313 258.74023438 160.03640625 259.63671875 160.5703125 C261.34847653 161.60585523 263.02884523 162.69387236 264.6875 163.8125 C269.04035827 166.68702905 273.5166017 169.33553984 278 172 C280.61078512 173.55256748 283.1686288 175.1137264 285.6875 176.8125 C290.04035827 179.68702905 294.5166017 182.33553984 299 185 C302.84170861 187.29877849 306.67570163 189.60986045 310.5 191.9375 C312.15515625 192.94103516 312.15515625 192.94103516 313.84375 193.96484375 C317 196 317 196 319.609375 198.10546875 C321.93131164 199.9455656 324.06900845 201.13964115 326.75 202.375 C330.95639754 204.40995338 334.72562819 206.73719806 338.56640625 209.38671875 C342.36877292 211.90738879 346.3364127 214.13246997 350.30078125 216.38671875 C352.67147231 217.80364408 354.80920254 219.32660365 357 221 C358.62563116 221.92893209 360.25233087 222.85609391 361.88671875 223.76953125 C364.43286551 225.25203814 366.8988136 226.84096583 369.375 228.4375 C372.81788119 230.65078076 376.27382694 232.74286655 379.875 234.6875 C383.22631127 236.50576462 386.04101354 238.58608999 389 241 C392.07840437 242.83520261 395.18668874 244.56352296 398.34375 246.2578125 C399.53484375 246.90363281 399.53484375 246.90363281 400.75 247.5625 C401.48734375 247.95566406 402.2246875 248.34882812 402.984375 248.75390625 C405 250 405 250 406.5234375 251.52734375 C408.19327105 253.19275975 409.74426343 254.00510355 411.875 255 C415.04608941 256.49227737 418.01000723 258.16984219 421 260 C422.0415625 260.62777344 423.083125 261.25554687 424.15625 261.90234375 C425.2596875 262.57394531 426.363125 263.24554687 427.5 263.9375 C428.6034375 264.60652344 429.706875 265.27554687 430.84375 265.96484375 C434 268 434 268 436.60546875 270.1015625 C438.9432741 271.95502645 441.11787022 273.17942567 443.8125 274.4375 C449.45840314 277.17643516 454.73947865 280.17005415 459.625 284.125 C462.28055415 286.22149012 464.95249501 287.53719761 468 289 C472.13739168 291.22782629 475.93327679 293.63323997 479.75 296.375 C483.22941503 298.85276525 486.72352366 301.00508171 490.5 303 C495.18638068 305.47557398 499.42977089 308.31787484 503.73046875 311.40625 C507.4312995 314.00511222 511.33955837 316.10978003 515.32421875 318.24609375 C516.12472656 318.68050781 516.92523437 319.11492187 517.75 319.5625 C518.48734375 319.95566406 519.2246875 320.34882812 519.984375 320.75390625 C522 322 522 322 523.5234375 323.52734375 C525.19327105 325.19275975 526.74426343 326.00510355 528.875 327 C532.03356059 328.52482235 535.03345758 330.11877798 538 332 C538.6909375 332.39703125 539.381875 332.7940625 540.09375 333.203125 C546.92466829 337.34721543 551.23960184 341.98963601 553.9140625 349.6015625 C555.63345106 356.78984959 554.92821593 363.21984071 552 370 C547.32286574 377.17089234 541.57655992 381.36783612 533.4375 383.75 C525.83293237 384.52995565 519.90121381 383.285769 513 380 C511.9846966 379.01554126 510.98404556 378.01570386 510 377 C508.50530595 376.1991731 506.98045371 375.45336895 505.4375 374.75 C500.77716456 372.50088159 496.75713594 369.78891628 492.57421875 366.76171875 C489.06194948 364.35802612 485.36452944 362.40051281 481.609375 360.40625 C476.98931251 357.91639596 472.55237783 355.28071171 468.5 351.9375 C465.76879525 349.82081632 463.01522017 348.42609847 459.9140625 346.93359375 C455.34820653 344.7065742 451.21813062 341.81208708 447 339 C443.17778605 336.55066289 439.33132716 334.16457158 435.375 331.9375 C432.14656987 330.08414196 429.08578656 328.07955181 426 326 C424.7934375 325.2884375 424.7934375 325.2884375 423.5625 324.5625 C421 323 421 323 417.8125 320.625 C415.05254938 318.61776319 412.26724283 317.09246367 409.1875 315.625 C404.61471469 313.42149771 400.67327625 310.72892418 396.5703125 307.7578125 C393.0695675 305.36368598 389.37524985 303.43510821 385.6328125 301.44921875 C382.50557718 299.72784738 379.5969986 297.78623955 376.65234375 295.7734375 C373.10465107 293.40134254 369.49355272 291.13706085 365.875 288.875 C365.20573486 288.45508789 364.53646973 288.03517578 363.84692383 287.60253906 C360.70087594 285.63941139 357.54254357 283.72530161 354.30859375 281.91015625 C351.45014034 280.25988032 348.83932478 278.51861607 346.1875 276.5625 C342.01822185 273.58807595 337.77806525 271.30924009 333.1640625 269.109375 C330.47409823 267.73040415 328.35251413 265.89348698 326 264 C324.24105543 263.0200166 322.46850401 262.06429664 320.6875 261.125 C316.41875344 258.85901657 312.69847366 256.35518015 308.90625 253.37890625 C306.39816133 251.56465359 303.76208151 250.25030706 300.95703125 248.95703125 C298.54268129 247.77636111 296.29181234 246.40411477 294 245 C292.50726562 244.09314453 292.50726562 244.09314453 290.984375 243.16796875 C281.21540394 237.18624372 281.21540394 237.18624372 276.75 234.125 C272.47466119 231.22472395 268.02835677 228.65399026 263.5625 226.0625 C257.94797639 222.80445031 252.58357629 219.39484224 247.32421875 215.58203125 C243.91431234 213.26100252 240.29535194 211.39109072 236.65234375 209.46484375 C233.39990473 207.66857772 230.38776414 205.60993867 227.328125 203.5078125 C224.70555708 201.80930375 222.00803579 200.34251102 219.25 198.875 C215.48322933 196.86605564 212.28535374 194.73779479 209 192 C207.35138098 191.0302241 205.70072169 190.06311835 204.02734375 189.13671875 C199.96090051 186.85668988 195.99220788 184.40687774 192 182 C191.12988281 181.48179687 190.25976562 180.96359375 189.36328125 180.4296875 C187.65152347 179.39414477 185.97115477 178.30612764 184.3125 177.1875 C179.95964173 174.31297095 175.4833983 171.66446016 171 169 C167.2533212 166.77209412 163.62712174 164.41808116 160 162 C159.175 161.505 158.35 161.01 157.5 160.5 C155.75576858 159.45346115 154.04885944 158.34326009 152.375 157.1875 C149.60153535 155.31007778 146.70891796 153.75447627 143.75 152.1875 C139.97683963 150.16325045 136.47213656 148.00458258 133 145.5 C128.72470029 142.41717691 124.30171222 139.92443588 119.6484375 137.4609375 C116.42426582 135.68241212 113.43022099 133.65661527 110.39453125 131.578125 C106.62408592 129.09319855 102.70976958 126.86474837 98.796875 124.61328125 C91.11522307 120.18238426 83.43723505 115.60282051 76.3125 110.3125 C73.32113272 108.11739595 70.18007927 106.5612327 66.83984375 104.96484375 C64.29133417 103.6283642 62.21993744 101.82148713 60 100 C56.92159563 98.16479739 53.81331126 96.43647704 50.65625 94.7421875 C49.8621875 94.31164063 49.068125 93.88109375 48.25 93.4375 C47.51265625 93.04433594 46.7753125 92.65117188 46.015625 92.24609375 C44 91 44 91 42.4765625 89.47265625 C40.80672895 87.80724025 39.25573657 86.99489645 37.125 86 C33.95391059 84.50772263 30.98999277 82.83015781 28 81 C26.9584375 80.37222656 25.916875 79.74445313 24.84375 79.09765625 C23.18859375 78.09025391 23.18859375 78.09025391 21.5 77.0625 C19.84484375 76.05896484 19.84484375 76.05896484 18.15625 75.03515625 C15 73 15 73 12.39453125 70.8984375 C10.0567259 69.04497355 7.88212978 67.82057433 5.1875 66.5625 C-0.40935856 63.8473573 -5.69073413 60.90514434 -10.5 56.9375 C-13.23120475 54.82081632 -15.98477983 53.42609847 -19.0859375 51.93359375 C-21.48856571 50.76169958 -23.74035086 49.42714683 -26 48 C-26.94875 47.443125 -27.8975 46.88625 -28.875 46.3125 C-35.2678382 41.58179973 -39.69279834 36.47314151 -41.62890625 28.64453125 C-42.88531667 19.6909538 -40.94746597 12.24894657 -35.56640625 5.09375 C-25.79053888 -5.97150035 -12.45799039 -5.92043816 0 0 Z " fill="#000000" transform="translate(319,936)"/>
<path d="M0 0 C97.50711893 0 97.50711893 0 114.74609375 16.51953125 C124.61633174 27.38192487 128.74649622 39.35413169 128.5 53.875 C128.48718994 55.02033203 128.47437988 56.16566406 128.46118164 57.34570312 C128.09779355 72.48507655 123.9226072 83.60281394 112.8125 94.25 C98.98684888 105.88894099 82.80493587 108.17677517 65.40625 108.09765625 C64.35276367 108.09664917 63.29927734 108.09564209 62.21386719 108.09460449 C58.30923359 108.08940468 54.40461561 108.0754436 50.5 108.0625 C41.755 108.041875 33.01 108.02125 24 108 C24 131.1 24 154.2 24 178 C16.08 178 8.16 178 0 178 C0 119.26 0 60.52 0 0 Z " fill="#FBFBFB" transform="translate(107,674)"/>
<path d="M0 0 C6.80153996 5.87405724 10.46554261 12.33475165 11.3125 21.3125 C10.53644374 30.46996392 6.54277025 39.46462745 3.625 48.125 C1.10264932 55.64733671 -1.41331984 63.16765204 -3.75 70.75 C-6.04920319 78.20858354 -8.50986386 85.60331272 -11 93 C-11.68825906 95.06224682 -12.37580477 97.12473192 -13.0625 99.1875 C-19.03125 117.09375 -19.03125 117.09375 -25 135 C-25.32742187 135.98355469 -25.65484375 136.96710938 -25.9921875 137.98046875 C-26.68179263 140.04661125 -27.37465799 142.11166767 -28.0703125 144.17578125 C-30.20339551 150.48356478 -30.20339551 150.48356478 -32.0625 156.875 C-33 160 -33 160 -34.5 162.875 C-36.0756001 166.1575002 -36.75179456 169.09995539 -37.4765625 172.640625 C-39.69820734 182.65460623 -43.45229379 192.78205533 -52 199 C-60.72005275 203.35360513 -68.2296327 204.10198686 -77.50390625 201.109375 C-83.87063481 198.27971786 -88.7129817 193.06834147 -92 187 C-96.03119692 176.11576831 -92.9050981 167.67266069 -89.25 157.25 C-88.80095442 155.94309568 -88.35302998 154.63580558 -87.90625 153.328125 C-87.02401408 150.75026943 -86.13566772 148.17464968 -85.24243164 145.60058594 C-84.16550487 142.47963564 -83.11178789 139.35294314 -82.07421875 136.21875 C-80.41697053 131.22281803 -78.71648456 126.24277642 -77.00390625 121.265625 C-70.21365451 101.51591793 -63.56482985 81.73026046 -57.17602539 61.84667969 C-56.91706482 61.04261185 -56.65810425 60.23854401 -56.39129639 59.41011047 C-55.9138482 57.92663585 -55.4380582 56.44262586 -54.9644165 54.95793152 C-53.4486635 50.24684276 -51.75076789 45.62891272 -50 41 C-49.18883052 38.48537461 -48.39730375 35.96433274 -47.625 33.4375 C-47.18940817 32.0401755 -46.7531944 30.64304475 -46.31640625 29.24609375 C-45.45209378 26.47253474 -44.60934107 23.69355325 -43.77734375 20.91015625 C-40.70719455 10.87241551 -37.43063217 3.24003231 -27.9921875 -2.03125 C-18.71526796 -6.5423795 -8.54253107 -5.81204169 0 0 Z " fill="#000000" transform="translate(279,367)"/>
<path d="M0 0 C15.66091171 12.48937114 22.51290389 27.4948046 26.22558594 46.74267578 C26.22558594 47.73267578 26.22558594 48.72267578 26.22558594 49.74267578 C18.30558594 49.74267578 10.38558594 49.74267578 2.22558594 49.74267578 C0.95449517 45.92940347 -0.14324054 42.36000042 -1.08691406 38.49267578 C-3.88815322 28.32265973 -7.89826845 20.80477523 -16.77441406 14.74267578 C-20.02854505 13.09652448 -23.28904163 11.80815233 -26.77441406 10.74267578 C-27.39832031 10.55060547 -28.02222656 10.35853516 -28.66503906 10.16064453 C-41.12137116 7.69244539 -55.0305318 10.07135763 -65.57128906 17.10986328 C-66.29832031 17.64869141 -67.02535156 18.18751953 -67.77441406 18.74267578 C-68.39832031 19.19900391 -69.02222656 19.65533203 -69.66503906 20.12548828 C-81.40122733 30.22283944 -85.47071829 48.06979934 -86.77441406 62.74267578 C-86.9099002 65.66676336 -86.93802308 68.58525011 -86.94238281 71.51220703 C-86.94571121 72.31446213 -86.94903961 73.11671722 -86.95246887 73.94328308 C-86.95749334 75.62811721 -86.9598786 77.31296113 -86.9597168 78.99780273 C-86.96189981 81.53858287 -86.98009415 84.07892544 -86.99902344 86.61962891 C-87.04184572 98.48532155 -86.43737342 109.70539957 -82.02441406 120.86767578 C-81.76128418 121.54435303 -81.4981543 122.22103027 -81.22705078 122.91821289 C-75.99266045 135.98860089 -69.43383811 144.09557584 -56.38769531 149.79736328 C-44.44610613 154.11704128 -30.30682954 152.47920357 -18.77441406 147.74267578 C-9.12441352 142.51559215 -4.18438783 133.85081231 -0.77441406 123.74267578 C-0.11441406 120.11267578 0.54558594 116.48267578 1.22558594 112.74267578 C9.14558594 112.74267578 17.06558594 112.74267578 25.22558594 112.74267578 C25.22558594 129.01319714 18.54767299 143.55542977 7.14746094 155.04736328 C-9.49892687 170.4029884 -29.43537151 172.59481702 -51.08935547 171.88623047 C-67.35538528 171.01657912 -80.95549731 162.34785101 -91.77441406 150.74267578 C-98.01751138 143.46609276 -102.15540313 135.58535343 -105.77441406 126.74267578 C-106.08121094 126.01951172 -106.38800781 125.29634766 -106.70410156 124.55126953 C-111.64455253 111.53801982 -112.27500589 96.89879513 -112.16552734 83.13818359 C-112.14941455 80.74274828 -112.16551278 78.34899899 -112.18457031 75.95361328 C-112.21919529 51.72694793 -107.11204341 27.07061285 -90.00097656 8.83642578 C-67.01109989 -12.78212492 -26.78066673 -18.97639428 0 0 Z " fill="#FAFAFA" transform="translate(1130.7744140625,1285.25732421875)"/>
<path d="M0 0 C15.66091171 12.48937114 22.51290389 27.4948046 26.22558594 46.74267578 C26.22558594 47.73267578 26.22558594 48.72267578 26.22558594 49.74267578 C18.30558594 49.74267578 10.38558594 49.74267578 2.22558594 49.74267578 C0.95449517 45.92940347 -0.14324054 42.36000042 -1.08691406 38.49267578 C-3.88815322 28.32265973 -7.89826845 20.80477523 -16.77441406 14.74267578 C-20.02854505 13.09652448 -23.28904163 11.80815233 -26.77441406 10.74267578 C-27.39832031 10.55060547 -28.02222656 10.35853516 -28.66503906 10.16064453 C-41.12137116 7.69244539 -55.0305318 10.07135763 -65.57128906 17.10986328 C-66.29832031 17.64869141 -67.02535156 18.18751953 -67.77441406 18.74267578 C-68.39832031 19.19900391 -69.02222656 19.65533203 -69.66503906 20.12548828 C-81.40122733 30.22283944 -85.47071829 48.06979934 -86.77441406 62.74267578 C-86.9099002 65.66676336 -86.93802308 68.58525011 -86.94238281 71.51220703 C-86.94571121 72.31446213 -86.94903961 73.11671722 -86.95246887 73.94328308 C-86.95749334 75.62811721 -86.9598786 77.31296113 -86.9597168 78.99780273 C-86.96189981 81.53858287 -86.98009415 84.07892544 -86.99902344 86.61962891 C-87.04184572 98.48532155 -86.43737342 109.70539957 -82.02441406 120.86767578 C-81.76128418 121.54435303 -81.4981543 122.22103027 -81.22705078 122.91821289 C-75.99266045 135.98860089 -69.43383811 144.09557584 -56.38769531 149.79736328 C-44.44610613 154.11704128 -30.30682954 152.47920357 -18.77441406 147.74267578 C-9.12441352 142.51559215 -4.18438783 133.85081231 -0.77441406 123.74267578 C-0.11441406 120.11267578 0.54558594 116.48267578 1.22558594 112.74267578 C9.14558594 112.74267578 17.06558594 112.74267578 25.22558594 112.74267578 C25.22558594 129.01319714 18.54767299 143.55542977 7.14746094 155.04736328 C-9.49892687 170.4029884 -29.43537151 172.59481702 -51.08935547 171.88623047 C-67.35538528 171.01657912 -80.95549731 162.34785101 -91.77441406 150.74267578 C-98.01751138 143.46609276 -102.15540313 135.58535343 -105.77441406 126.74267578 C-106.08121094 126.01951172 -106.38800781 125.29634766 -106.70410156 124.55126953 C-111.64455253 111.53801982 -112.27500589 96.89879513 -112.16552734 83.13818359 C-112.14941455 80.74274828 -112.16551278 78.34899899 -112.18457031 75.95361328 C-112.21919529 51.72694793 -107.11204341 27.07061285 -90.00097656 8.83642578 C-67.01109989 -12.78212492 -26.78066673 -18.97639428 0 0 Z " fill="#FAFAFA" transform="translate(370.7744140625,91.25732421875)"/>
<path d="M0 0 C4.78833161 3.32289679 8.03055587 7.01133387 11 12 C11.58265625 11.49210938 12.1653125 10.98421875 12.765625 10.4609375 C24.05935376 0.97846713 35.4896017 -4.40145057 50.3125 -4.375 C51.24513672 -4.37338867 52.17777344 -4.37177734 53.13867188 -4.37011719 C59.76085702 -4.25178101 65.27292486 -3.56074672 71 0 C72.36125 0.804375 72.36125 0.804375 73.75 1.625 C83.66795816 12.09395584 86.18506973 25.12683201 86.11352539 39.06835938 C86.11367142 39.83030609 86.11381744 40.59225281 86.1139679 41.37728882 C86.11327781 43.86613938 86.10552829 46.3549127 86.09765625 48.84375 C86.09578885 50.58109496 86.09436647 52.31844045 86.09336853 54.05578613 C86.0895687 58.60625691 86.0797603 63.15669526 86.06866455 67.70715332 C86.0583957 72.35945192 86.05385923 77.01175581 86.04882812 81.6640625 C86.03813554 90.77605813 86.02055952 99.88802128 86 109 C79.4 109 72.8 109 66 109 C65.97812622 105.5342749 65.97812622 105.5342749 65.95581055 101.99853516 C65.90530474 94.33499475 65.83868208 86.67165413 65.76428509 79.00831032 C65.71969994 74.36542141 65.68041817 69.72261785 65.65356445 65.07958984 C65.62741258 60.59253739 65.58692753 56.1058155 65.53681374 51.61896896 C65.52022496 49.91354889 65.50866122 48.20807175 65.50238609 46.50258255 C66.06698289 32.05859396 66.06698289 32.05859396 60.54862976 19.33584595 C54.32595953 13.93501114 47.76750149 14.46715925 39.96337891 14.82519531 C31.74759191 15.55666802 21.76494471 21.23505529 16 27 C15.87497358 29.55499309 15.81395823 32.08430642 15.79467773 34.64086914 C15.78477814 35.44080795 15.77487854 36.24074677 15.76467896 37.06492615 C15.73297082 39.72163892 15.70826992 42.3783696 15.68359375 45.03515625 C15.66303225 46.87219215 15.642036 48.70922324 15.62062073 50.54624939 C15.56531696 55.39104318 15.51594445 60.23588025 15.46777344 65.08074951 C15.41761889 70.02066925 15.36190134 74.96052583 15.30664062 79.90039062 C15.19895752 89.60020856 15.09804905 99.30007989 15 109 C8.73 109 2.46 109 -4 109 C-4.029729 105.72388794 -4.029729 105.72388794 -4.06005859 102.3815918 C-4.12725465 95.12920448 -4.20488819 87.87695515 -4.28752708 80.6247282 C-4.33726826 76.23186529 -4.38359844 71.83902388 -4.421875 67.44604492 C-4.45901026 63.19895104 -4.50544283 58.95204742 -4.55806351 54.70511818 C-4.57645865 53.09262271 -4.59162019 51.48008669 -4.60334396 49.86752892 C-4.08285343 32.81704253 -4.08285343 32.81704253 -11 18 C-15.58049352 15.18694286 -19.52623049 14.48330024 -24.8125 14.5625 C-25.52100098 14.57007324 -26.22950195 14.57764648 -26.95947266 14.58544922 C-32.84749572 14.77033557 -37.03207401 15.95065737 -42 19 C-42.8765625 19.51691406 -43.753125 20.03382813 -44.65625 20.56640625 C-46.39399671 21.60256269 -48.12178811 22.65572429 -49.8359375 23.73046875 C-52 25 -52 25 -55 26 C-55 53.39 -55 80.78 -55 109 C-61.27 109 -67.54 109 -74 109 C-74 72.7 -74 36.4 -74 -1 C-67.73 -1 -61.46 -1 -55 -1 C-55 2.3 -55 5.6 -55 9 C-53.67548828 8.09507812 -53.67548828 8.09507812 -52.32421875 7.171875 C-37.49129481 -2.79926167 -16.89287928 -10.83820374 0 0 Z " fill="#000000" transform="translate(983,744)"/>
<path d="M0 0 C4.78833161 3.32289679 8.03055587 7.01133387 11 12 C11.58265625 11.49210938 12.1653125 10.98421875 12.765625 10.4609375 C24.05935376 0.97846713 35.4896017 -4.40145057 50.3125 -4.375 C51.24513672 -4.37338867 52.17777344 -4.37177734 53.13867188 -4.37011719 C59.76085702 -4.25178101 65.27292486 -3.56074672 71 0 C72.36125 0.804375 72.36125 0.804375 73.75 1.625 C83.66795816 12.09395584 86.18506973 25.12683201 86.11352539 39.06835938 C86.11367142 39.83030609 86.11381744 40.59225281 86.1139679 41.37728882 C86.11327781 43.86613938 86.10552829 46.3549127 86.09765625 48.84375 C86.09578885 50.58109496 86.09436647 52.31844045 86.09336853 54.05578613 C86.0895687 58.60625691 86.0797603 63.15669526 86.06866455 67.70715332 C86.0583957 72.35945192 86.05385923 77.01175581 86.04882812 81.6640625 C86.03813554 90.77605813 86.02055952 99.88802128 86 109 C79.4 109 72.8 109 66 109 C65.97812622 105.5342749 65.97812622 105.5342749 65.95581055 101.99853516 C65.90530474 94.33499475 65.83868208 86.67165413 65.76428509 79.00831032 C65.71969994 74.36542141 65.68041817 69.72261785 65.65356445 65.07958984 C65.62741258 60.59253739 65.58692753 56.1058155 65.53681374 51.61896896 C65.52022496 49.91354889 65.50866122 48.20807175 65.50238609 46.50258255 C66.06698289 32.05859396 66.06698289 32.05859396 60.54862976 19.33584595 C54.32595953 13.93501114 47.76750149 14.46715925 39.96337891 14.82519531 C31.74759191 15.55666802 21.76494471 21.23505529 16 27 C15.87497358 29.55499309 15.81395823 32.08430642 15.79467773 34.64086914 C15.78477814 35.44080795 15.77487854 36.24074677 15.76467896 37.06492615 C15.73297082 39.72163892 15.70826992 42.3783696 15.68359375 45.03515625 C15.66303225 46.87219215 15.642036 48.70922324 15.62062073 50.54624939 C15.56531696 55.39104318 15.51594445 60.23588025 15.46777344 65.08074951 C15.41761889 70.02066925 15.36190134 74.96052583 15.30664062 79.90039062 C15.19895752 89.60020856 15.09804905 99.30007989 15 109 C8.73 109 2.46 109 -4 109 C-4.029729 105.72388794 -4.029729 105.72388794 -4.06005859 102.3815918 C-4.12725465 95.12920448 -4.20488819 87.87695515 -4.28752708 80.6247282 C-4.33726826 76.23186529 -4.38359844 71.83902388 -4.421875 67.44604492 C-4.45901026 63.19895104 -4.50544283 58.95204742 -4.55806351 54.70511818 C-4.57645865 53.09262271 -4.59162019 51.48008669 -4.60334396 49.86752892 C-4.08285343 32.81704253 -4.08285343 32.81704253 -11 18 C-15.58049352 15.18694286 -19.52623049 14.48330024 -24.8125 14.5625 C-25.52100098 14.57007324 -26.22950195 14.57764648 -26.95947266 14.58544922 C-32.84749572 14.77033557 -37.03207401 15.95065737 -42 19 C-42.8765625 19.51691406 -43.753125 20.03382813 -44.65625 20.56640625 C-46.39399671 21.60256269 -48.12178811 22.65572429 -49.8359375 23.73046875 C-52 25 -52 25 -55 26 C-55 53.39 -55 80.78 -55 109 C-61.27 109 -67.54 109 -74 109 C-74 72.7 -74 36.4 -74 -1 C-67.73 -1 -61.46 -1 -55 -1 C-55 2.3 -55 5.6 -55 9 C-53.67548828 8.09507812 -53.67548828 8.09507812 -52.32421875 7.171875 C-37.49129481 -2.79926167 -16.89287928 -10.83820374 0 0 Z " fill="#000000" transform="translate(729,155)"/>
<path d="M0 0 C4.78833161 3.32289679 8.03055587 7.01133387 11 12 C11.58265625 11.49210938 12.1653125 10.98421875 12.765625 10.4609375 C24.05935376 0.97846713 35.4896017 -4.40145057 50.3125 -4.375 C51.24513672 -4.37338867 52.17777344 -4.37177734 53.13867188 -4.37011719 C59.76085702 -4.25178101 65.27292486 -3.56074672 71 0 C72.36125 0.804375 72.36125 0.804375 73.75 1.625 C83.63840792 12.06276391 86.18585191 25.07072624 86.11352539 38.9765625 C86.11367142 39.72875565 86.11381744 40.48094879 86.1139679 41.25593567 C86.11327795 43.71232103 86.10552909 46.16862808 86.09765625 48.625 C86.0957888 50.33992471 86.09436644 52.05484996 86.09336853 53.76977539 C86.08956908 58.26106261 86.07976103 62.75231698 86.06866455 67.24359131 C86.05839486 71.83556677 86.05385905 76.42754759 86.04882812 81.01953125 C86.03813622 90.01303752 86.02056052 99.00651087 86 108 C79.4 108 72.8 108 66 108 C65.97812622 104.57971436 65.97812622 104.57971436 65.95581055 101.09033203 C65.90530074 93.52657479 65.83867743 85.96301988 65.76428509 78.39946175 C65.71970328 73.81710724 65.68042082 69.23483914 65.65356445 64.65234375 C65.62740919 60.22364372 65.58692187 55.79527844 65.53681374 51.36678696 C65.52022722 49.68369612 65.50866209 48.00054749 65.50238609 46.31738663 C66.04790813 31.96970211 66.04790813 31.96970211 60.54862976 19.33499146 C54.32432951 13.93604307 47.76807099 14.46713313 39.96337891 14.82519531 C31.74759191 15.55666802 21.76494471 21.23505529 16 27 C15.87499848 29.5244907 15.81396462 32.02299617 15.79467773 34.54907227 C15.78477814 35.33925751 15.77487854 36.12944275 15.76467896 36.943573 C15.73297152 39.56781978 15.70827021 42.19208469 15.68359375 44.81640625 C15.66303219 46.63102197 15.64203594 48.4456328 15.62062073 50.26023865 C15.56531759 55.0458482 15.5159448 59.83150156 15.46777344 64.6171875 C15.41761843 69.49678464 15.36190112 74.37631785 15.30664062 79.25585938 C15.19895829 88.83718709 15.09804959 98.41856886 15 108 C8.73 108 2.46 108 -4 108 C-4.029729 104.76932739 -4.029729 104.76932739 -4.06005859 101.47338867 C-4.12726118 94.3207849 -4.20489454 87.16832093 -4.28752708 80.01587963 C-4.33726368 75.6835513 -4.38359381 71.35124472 -4.421875 67.01879883 C-4.45901617 62.83005811 -4.50545013 58.64151009 -4.55806351 54.45293617 C-4.57645558 52.86276984 -4.59161819 51.27256245 -4.60334396 49.68233299 C-4.102472 32.72790821 -4.102472 32.72790821 -11 18 C-15.58049352 15.18694286 -19.52623049 14.48330024 -24.8125 14.5625 C-25.52100098 14.57007324 -26.22950195 14.57764648 -26.95947266 14.58544922 C-32.84749572 14.77033557 -37.03207401 15.95065737 -42 19 C-42.8765625 19.51691406 -43.753125 20.03382813 -44.65625 20.56640625 C-46.39399671 21.60256269 -48.12178811 22.65572429 -49.8359375 23.73046875 C-52 25 -52 25 -55 26 C-55 53.06 -55 80.12 -55 108 C-61.27 108 -67.54 108 -74 108 C-74 72.03 -74 36.06 -74 -1 C-67.73 -1 -61.46 -1 -55 -1 C-55 2.3 -55 5.6 -55 9 C-53.67548828 8.09507812 -53.67548828 8.09507812 -52.32421875 7.171875 C-37.49129481 -2.79926167 -16.89287928 -10.83820374 0 0 Z " fill="#000000" transform="translate(1178,744)"/>
<path d="M0 0 C0.66 -0.99 1.32 -1.98 2 -3 C3.87939453 -3.34057617 3.87939453 -3.34057617 6.1328125 -3.29296875 C6.93847656 -3.28330078 7.74414062 -3.27363281 8.57421875 -3.26367188 C9.41597656 -3.23853516 10.25773437 -3.21339844 11.125 -3.1875 C11.97449219 -3.17396484 12.82398438 -3.16042969 13.69921875 -3.14648438 C15.79974837 -3.11108219 17.89995293 -3.05727401 20 -3 C20.07039166 10.83962304 20.12293466 24.67921791 20.15543652 38.51898384 C20.17104173 44.9464759 20.19218555 51.37384704 20.22631836 57.80126953 C20.25909581 64.01287894 20.27689164 70.22437259 20.28463173 76.43606186 C20.29014237 78.79693293 20.30090262 81.15779822 20.31719017 83.51861954 C20.56463111 120.89656917 20.56463111 120.89656917 7.375 135.375 C-4.10941465 145.91518935 -17.54798084 147.38995495 -32.4375 147.375 C-33.42571747 147.37717529 -33.42571747 147.37717529 -34.43389893 147.37939453 C-45.59674542 147.37668272 -55.27621558 146.0101851 -66 143 C-66 136.73 -66 130.46 -66 124 C-60.53311338 124.40797661 -55.58807021 125.07523818 -50.3125 126.5625 C-43.95093829 128.10170981 -37.7840312 128.33292539 -31.25 128.375 C-30.27973877 128.38861572 -29.30947754 128.40223145 -28.30981445 128.41625977 C-20.58046814 128.36803805 -14.23710214 127.07663156 -7.6875 122.875 C0.23178006 114.40321203 0.17912039 104.00595276 0 93 C-0.81791016 93.58007812 -0.81791016 93.58007812 -1.65234375 94.171875 C-15.03797174 103.41596681 -28.64655056 106.71095456 -44.80859375 103.82421875 C-56.42783605 100.82341076 -64.28161882 94.19482787 -70.42578125 84.07421875 C-78.52809532 68.25158556 -79.40173673 47.41689084 -75.10546875 30.3125 C-70.18831425 15.5784116 -62.7059151 5.42638747 -49 -2 C-48.21496094 -2.43699219 -47.42992187 -2.87398437 -46.62109375 -3.32421875 C-32.13142709 -9.95271795 -13.67977285 -6.9974875 0 0 Z M-49.2421875 21.5859375 C-57.9055218 33.48358328 -58.30201232 48.59493547 -56.5390625 62.68359375 C-54.9348639 70.69515027 -52.41100285 77.36690657 -45.984375 82.66015625 C-37.70380442 87.71581074 -26.99328876 87.36574338 -17.77734375 85.265625 C-11.25640017 83.02777657 -3.9252403 79.9252403 1 75 C1.29296143 72.4916408 1.29296143 72.4916408 1.22705078 69.54052734 C1.22682419 67.82897964 1.22682419 67.82897964 1.22659302 66.08285522 C1.21627045 64.84637238 1.20594788 63.60988953 1.1953125 62.3359375 C1.19106766 60.4424205 1.19106766 60.4424205 1.18673706 58.51065063 C1.17742131 55.15353056 1.15944835 51.79668088 1.1373291 48.43963623 C1.1168755 45.01446878 1.1077364 41.58927341 1.09765625 38.1640625 C1.07556458 31.44263329 1.04206377 24.72133227 1 18 C-0.24917901 17.35507547 -1.50080774 16.71489481 -2.75341797 16.07666016 C-3.45014618 15.7196402 -4.14687439 15.36262024 -4.86471558 14.99478149 C-19.07171072 8.37605862 -38.43844084 9.90739354 -49.2421875 21.5859375 Z " fill="#000000" transform="translate(1549,746)"/>
<path d="M0 0 C0.66 -0.99 1.32 -1.98 2 -3 C3.87939453 -3.34057617 3.87939453 -3.34057617 6.1328125 -3.29296875 C6.93847656 -3.28330078 7.74414062 -3.27363281 8.57421875 -3.26367188 C9.41597656 -3.23853516 10.25773438 -3.21339844 11.125 -3.1875 C11.97449219 -3.17396484 12.82398438 -3.16042969 13.69921875 -3.14648438 C15.79974837 -3.11108219 17.89995293 -3.05727401 20 -3 C20.07039166 10.83962304 20.12293466 24.67921791 20.15543652 38.51898384 C20.17104173 44.9464759 20.19218555 51.37384704 20.22631836 57.80126953 C20.25909581 64.01287894 20.27689164 70.22437259 20.28463173 76.43606186 C20.29014237 78.79693293 20.30090262 81.15779822 20.31719017 83.51861954 C20.56463111 120.89656917 20.56463111 120.89656917 7.375 135.375 C-4.10941465 145.91518935 -17.54798084 147.38995495 -32.4375 147.375 C-33.42571747 147.37717529 -33.42571747 147.37717529 -34.43389893 147.37939453 C-45.59674542 147.37668272 -55.27621558 146.0101851 -66 143 C-66 136.73 -66 130.46 -66 124 C-60.53311338 124.40797661 -55.58807021 125.07523818 -50.3125 126.5625 C-43.95093829 128.10170981 -37.7840312 128.33292539 -31.25 128.375 C-30.27973877 128.38861572 -29.30947754 128.40223145 -28.30981445 128.41625977 C-20.58046814 128.36803805 -14.23710214 127.07663156 -7.6875 122.875 C0.23178006 114.40321203 0.17912039 104.00595276 0 93 C-0.81791016 93.58007812 -0.81791016 93.58007812 -1.65234375 94.171875 C-15.03797174 103.41596681 -28.64655056 106.71095456 -44.80859375 103.82421875 C-56.42783605 100.82341076 -64.28161882 94.19482787 -70.42578125 84.07421875 C-78.52809532 68.25158556 -79.40173673 47.41689084 -75.10546875 30.3125 C-70.18831425 15.5784116 -62.7059151 5.42638747 -49 -2 C-48.21496094 -2.43699219 -47.42992187 -2.87398437 -46.62109375 -3.32421875 C-32.13142709 -9.95271795 -13.67977285 -6.9974875 0 0 Z M-49.2421875 21.5859375 C-57.9055218 33.48358328 -58.30201232 48.59493547 -56.5390625 62.68359375 C-54.9348639 70.69515027 -52.41100285 77.36690657 -45.984375 82.66015625 C-37.70380442 87.71581074 -26.99328876 87.36574338 -17.77734375 85.265625 C-11.25640017 83.02777657 -3.9252403 79.9252403 1 75 C1.29296143 72.4916408 1.29296143 72.4916408 1.22705078 69.54052734 C1.22682419 67.82897964 1.22682419 67.82897964 1.22659302 66.08285522 C1.21627045 64.84637238 1.20594788 63.60988953 1.1953125 62.3359375 C1.19106766 60.4424205 1.19106766 60.4424205 1.18673706 58.51065063 C1.17742131 55.15353056 1.15944835 51.79668088 1.1373291 48.43963623 C1.1168755 45.01446878 1.1077364 41.58927341 1.09765625 38.1640625 C1.07556458 31.44263329 1.04206377 24.72133227 1 18 C-0.24917901 17.35507547 -1.50080774 16.71489481 -2.75341797 16.07666016 C-3.45014618 15.7196402 -4.14687439 15.36262024 -4.86471558 14.99478149 C-19.07171072 8.37605862 -38.43844084 9.90739354 -49.2421875 21.5859375 Z " fill="#000000" transform="translate(652,746)"/>
<path d="M0 0 C6.27 0 12.54 0 19 0 C19.33 17.16 19.66 34.32 20 52 C23.3 49.69 26.6 47.38 30 45 C42.4058587 39.5183415 56.84616392 37.23412743 70.125 41.4375 C80.87324432 46.24636912 87.4964016 55.18071086 92.1796875 65.6328125 C99.56374932 84.98228836 98.89443427 109.06713057 90.71875 127.9609375 C84.58728669 140.12167306 75.6182771 148.87948691 62.828125 153.6328125 C57.77638792 155.25561514 53.02706983 155.49680384 47.75 155.4375 C46.83412109 155.43282715 45.91824219 155.4281543 44.97460938 155.42333984 C37.39519188 155.25909242 31.03806453 153.90426157 24 151 C23.0615625 150.62617187 22.123125 150.25234375 21.15625 149.8671875 C20.4446875 149.58101562 19.733125 149.29484375 19 149 C18.67 150.32 18.34 151.64 18 153 C12.06 153 6.12 153 0 153 C0 102.51 0 52.02 0 0 Z M31 62 C29.97815613 62.41604996 28.95631226 62.83209991 27.90350342 63.26075745 C24.46165396 64.88179624 21.80404899 66.41615294 19 69 C17.35080914 73.79923341 17.59247218 78.46070065 17.828125 83.46484375 C17.85053638 84.86724046 17.86760391 86.26973181 17.87957764 87.67225647 C17.92517917 91.3458779 18.04280548 95.01370989 18.17602539 98.68505859 C18.29929023 102.43833056 18.35369261 106.19254861 18.4140625 109.94726562 C18.54236664 117.30080356 18.74684927 124.64958772 19 132 C31.10565766 136.45832603 31.10565766 136.45832603 43.875 137.5625 C44.68235596 137.54517822 45.48971191 137.52785645 46.3215332 137.51000977 C52.2267929 137.27480483 57.10048787 136.50408146 62 133 C62.71414063 132.49082031 63.42828125 131.98164062 64.1640625 131.45703125 C71.90347714 125.30771452 74.97620239 117.57487307 76.28466797 107.89379883 C77.6605416 93.28565402 77.87004107 76.96929801 68.75 64.625 C62.42290103 58.58549644 56.72372314 57.40897882 48.06616211 57.52954102 C41.66359895 57.80849549 36.73619059 59.31266288 31 62 Z " fill="#000000" transform="translate(1475,1302)"/>
<path d="M0 0 C11.74941928 8.44650786 17.1933113 19.50037268 20.5625 33.3046875 C24.0133518 54.56439951 21.80416751 76.09318157 9 94 C1.41235396 103.64100386 -9.96937918 109.15188298 -21.9375 110.75 C-34.57151368 111.68713838 -44.20934887 108.91277131 -56 104 C-56 118.52 -56 133.04 -56 148 C-62.27 148 -68.54 148 -75 148 C-75 98.83 -75 49.66 -75 -1 C-68.73 -1 -62.46 -1 -56 -1 C-55.67 1.97 -55.34 4.94 -55 8 C-54.47792969 7.62488281 -53.95585938 7.24976563 -53.41796875 6.86328125 C-38.63338517 -3.41601767 -16.80717013 -10.20533571 0 0 Z M-44 18 C-45.02385803 18.4185878 -46.04771606 18.8371756 -47.1026001 19.26844788 C-50.53190236 20.89120066 -53.19777159 22.43029026 -56 25 C-57.64507393 29.7276546 -57.40809991 34.3116132 -57.171875 39.24609375 C-57.14946287 40.62606899 -57.13239569 42.00614044 -57.12042236 43.38624573 C-57.07482594 47.00072838 -56.95720678 50.60932445 -56.82397461 54.22149658 C-56.70069706 57.91443208 -56.64630486 61.60832982 -56.5859375 65.30273438 C-56.45764284 72.53782649 -56.25316892 79.76808546 -56 87 C-54.25093469 87.64836042 -52.50070781 88.29358784 -50.75 88.9375 C-49.77546875 89.29714844 -48.8009375 89.65679687 -47.796875 90.02734375 C-38.7172583 93.18491995 -25.74532645 94.14521509 -16.75 90.375 C-14.77570225 89.28714583 -14.77570225 89.28714583 -13 88 C-12.3709375 87.5875 -11.741875 87.175 -11.09375 86.75 C-4.00703674 81.4649935 -1.0590184 73.34211747 1 65 C2.89313369 49.71752564 2.24219454 34.80379824 -5.625 21.1875 C-12.71739982 14.65502648 -19.81953089 13.22315981 -29.328125 13.5859375 C-34.76888871 14.19947043 -39.06842934 15.7124261 -44 18 Z " fill="#000000" transform="translate(925,155)"/>
<path d="M0 0 C2.00754676 0.00317109 4.0136287 -0.02044595 6.02099609 -0.0456543 C18.27661494 -0.05170347 29.66262365 1.49627237 39.50927734 9.31567383 C46.40140496 16.22080546 49.82782972 24.12963102 49.88253784 33.89312744 C49.87175201 34.66493347 49.86096619 35.4367395 49.84985352 36.23193359 C49.85051064 37.49211555 49.85051064 37.49211555 49.85118103 38.77775574 C49.84911126 41.52111042 49.82586701 44.26383378 49.80224609 47.00708008 C49.79664368 48.9223548 49.79237663 50.83763385 49.78938293 52.75291443 C49.77798501 57.76872848 49.74856177 62.78427765 49.715271 67.79998779 C49.68446068 72.92822691 49.67085426 78.05650925 49.65576172 83.18481445 C49.6236868 93.22856873 49.5709606 103.27205771 49.50927734 113.31567383 C43.23927734 113.31567383 36.96927734 113.31567383 30.50927734 113.31567383 C30.17927734 110.01567383 29.84927734 106.71567383 29.50927734 103.31567383 C28.72166016 103.84676758 27.93404297 104.37786133 27.12255859 104.92504883 C12.23626842 114.5791163 -3.04740169 117.96244745 -20.70947266 114.72583008 C-29.96023586 111.54953955 -37.27382107 103.91026092 -41.65087891 95.35864258 C-45.05584653 87.07586086 -44.85403479 74.88581297 -42.55322266 66.31567383 C-38.4529315 56.72324957 -30.38492561 50.787089 -21.08056641 46.71411133 C-4.91051635 40.41500587 13.33770252 39.88934507 30.50927734 40.31567383 C29.64760508 30.62280054 29.64760508 30.62280054 24.39331055 22.7746582 C18.26487157 18.02883063 10.38980409 17.79721413 2.94677734 17.87817383 C1.98803711 17.88357178 1.02929688 17.88896973 0.04150391 17.89453125 C-8.6265229 18.07746508 -16.23752477 19.71087495 -24.49072266 22.31567383 C-25.54775391 22.62375977 -26.60478516 22.9318457 -27.69384766 23.24926758 C-29.96700178 23.9128 -32.23049775 24.60935355 -34.49072266 25.31567383 C-34.49072266 18.71567383 -34.49072266 12.11567383 -34.49072266 5.31567383 C-22.68875849 1.38168577 -12.41080717 -0.04085489 0 0 Z M-20.00244141 67.53442383 C-24.49258637 72.9084556 -24.06811309 78.58546654 -23.49072266 85.31567383 C-21.61649458 90.83971448 -18.52164431 93.76678372 -13.36572266 96.40161133 C-4.40065751 99.25191737 7.42288492 98.34951816 15.96630859 94.66723633 C23.71099507 90.67075415 23.71099507 90.67075415 30.50927734 85.31567383 C30.59703339 83.17008556 30.61622953 81.02162962 30.60693359 78.87426758 C30.60371094 77.5690918 30.60048828 76.26391602 30.59716797 74.91918945 C30.58881136 73.53051693 30.58034639 72.14184506 30.57177734 70.75317383 C30.566764 69.36059727 30.56220081 67.96801901 30.55810547 66.57543945 C30.54627168 63.15547513 30.52978615 59.73559539 30.50927734 56.31567383 C3.37436317 55.76599148 3.37436317 55.76599148 -20.00244141 67.53442383 Z " fill="#000000" transform="translate(824.49072265625,739.684326171875)"/>
<path d="M0 0 C1.05517822 0.00829834 2.11035645 0.01659668 3.19750977 0.02514648 C15.52189795 0.2918917 25.04219205 2.71884942 34.1875 11.4375 C35.03248047 12.22253906 35.03248047 12.22253906 35.89453125 13.0234375 C48.15681381 25.75137635 47.1875 44.13236308 47.1875 60.4375 C20.7875 60.4375 -5.6125 60.4375 -32.8125 60.4375 C-30.29232261 77.42300795 -30.29232261 77.42300795 -19.7421875 90.26171875 C-7.96804063 97.43584468 6.30703094 98.66619934 19.67578125 95.53125 C26.93941308 93.49948279 33.59961438 90.49629111 40.05078125 86.57421875 C42.1875 85.4375 42.1875 85.4375 45.1875 85.4375 C45.1875 92.0375 45.1875 98.6375 45.1875 105.4375 C36.16338424 109.94955788 36.16338424 109.94955788 32.7421875 110.88671875 C31.98284912 111.09482178 31.22351074 111.3029248 30.44116211 111.51733398 C9.76413789 116.79959954 -10.91173503 117.31455221 -30 106.6875 C-41.51278322 99.37113538 -48.50790423 88.632109 -51.8125 75.4375 C-55.35187512 58.76255664 -53.74751417 38.87165173 -45.40234375 23.8046875 C-34.47768417 7.53848675 -19.33100871 -0.19594845 0 0 Z M-26.8125 27.4375 C-31.38231536 33.65563184 -31.90870436 37.30333924 -32.8125 45.4375 C-12.6825 45.4375 7.4475 45.4375 28.1875 45.4375 C26.99168149 32.00886475 26.99168149 32.00886475 19.375 21.5 C4.73121584 12.02461025 -15.15723269 14.30589883 -26.8125 27.4375 Z " fill="#000000" transform="translate(1019.8125,150.5625)"/>
<path d="M0 0 C1.05517822 0.00829834 2.11035645 0.01659668 3.19750977 0.02514648 C15.52189795 0.2918917 25.04219205 2.71884942 34.1875 11.4375 C35.03248047 12.22253906 35.03248047 12.22253906 35.89453125 13.0234375 C48.15681381 25.75137635 47.1875 44.13236308 47.1875 60.4375 C20.7875 60.4375 -5.6125 60.4375 -32.8125 60.4375 C-30.29232261 77.42300795 -30.29232261 77.42300795 -19.7421875 90.26171875 C-7.96804063 97.43584468 6.30703094 98.66619934 19.67578125 95.53125 C26.93941308 93.49948279 33.59961438 90.49629111 40.05078125 86.57421875 C42.1875 85.4375 42.1875 85.4375 45.1875 85.4375 C45.1875 92.0375 45.1875 98.6375 45.1875 105.4375 C31.57596671 112.24326665 19.42656691 114.89155154 4.25 114.9375 C2.58167114 114.94668457 2.58167114 114.94668457 0.87963867 114.95605469 C-14.00094437 114.7302391 -27.70758495 110.52586845 -38.75 100.1875 C-51.91677749 85.98187584 -53.61081276 68.68617357 -52.99609375 50.21386719 C-51.95699844 34.50031419 -45.47069242 21.02553846 -33.8125 10.4375 C-23.24896936 2.79668535 -12.91841679 -0.13094732 0 0 Z M-26.8125 27.4375 C-31.38231536 33.65563184 -31.90870436 37.30333924 -32.8125 45.4375 C-12.6825 45.4375 7.4475 45.4375 28.1875 45.4375 C26.99168149 32.00886475 26.99168149 32.00886475 19.375 21.5 C4.73121584 12.02461025 -15.15723269 14.30589883 -26.8125 27.4375 Z " fill="#000000" transform="translate(1522.8125,150.5625)"/>
<path d="M0 0 C0.96566895 -0.01015137 1.93133789 -0.02030273 2.92626953 -0.03076172 C14.91923622 0.11447121 25.10337423 3.87855897 34.125 11.875 C34.8675 12.720625 35.61 13.56625 36.375 14.4375 C36.85453125 14.93765625 37.3340625 15.4378125 37.828125 15.953125 C49.07943704 28.11363397 51.57137012 44.40878881 51.375 60.4375 C50.66525641 76.74385893 46.22459439 92.58790561 34.375 104.4375 C21.18515143 113.95552447 7.66350501 117.63267923 -8.4375 115.875 C-22.79568162 113.4414099 -32.76725845 107.22469626 -41.5 95.5625 C-51.57103887 80.25452091 -53.0720669 59.44328405 -49.90234375 41.73828125 C-46.80546295 27.4327753 -40.33592133 15.74729435 -28.3125 7.0625 C-19.07801764 1.52495692 -10.65409441 0.07982503 0 0 Z M-23.625 27.4375 C-25.42895024 29.98167298 -26.57211706 32.50773878 -27.625 35.4375 C-27.92277344 36.241875 -28.22054688 37.04625 -28.52734375 37.875 C-32.85205834 51.90541047 -32.5123723 69.79490425 -26.37109375 83.16796875 C-22.67781365 89.98091324 -18.07092325 94.62270929 -10.859375 97.56640625 C-3.04932095 99.66983868 6.48619361 99.83694393 13.9375 96.4375 C22.0970247 91.54178518 26.90414595 84.54259716 29.375 75.4375 C32.51001846 60.56320046 32.86831174 43.73829555 25.125 30.1875 C20.93769531 23.981764 15.57872589 19.68022105 8.375 17.4375 C5.62561423 17.15678193 3.17092815 17.0052263 0.4375 17.0625 C-0.62017578 17.0788147 -0.62017578 17.0788147 -1.69921875 17.09545898 C-11.23124378 17.38781855 -17.20697321 20.34765303 -23.625 27.4375 Z " fill="#000000" transform="translate(503.625,739.5625)"/>
<path d="M0 0 C0.96566895 -0.01015137 1.93133789 -0.02030273 2.92626953 -0.03076172 C14.91923622 0.11447121 25.10337423 3.87855897 34.125 11.875 C34.8675 12.720625 35.61 13.56625 36.375 14.4375 C36.85453125 14.93765625 37.3340625 15.4378125 37.828125 15.953125 C49.07943704 28.11363397 51.57137012 44.40878881 51.375 60.4375 C50.66525641 76.74385893 46.22459439 92.58790561 34.375 104.4375 C19.55348393 115.13296416 6.32019334 116.62607353 -11.625 115.4375 C-23.69836461 113.30116147 -34.04430908 106.03045927 -41.25 96.2265625 C-51.33418709 80.64649345 -53.13919755 59.74320003 -49.90625 41.72265625 C-46.78926067 27.42429669 -40.3363851 15.74762935 -28.3125 7.0625 C-19.07801764 1.52495692 -10.65409441 0.07982503 0 0 Z M-23.625 27.4375 C-25.42895024 29.98167298 -26.57211706 32.50773878 -27.625 35.4375 C-27.92277344 36.241875 -28.22054687 37.04625 -28.52734375 37.875 C-32.85205834 51.90541047 -32.5123723 69.79490425 -26.37109375 83.16796875 C-22.67781365 89.98091324 -18.07092325 94.62270929 -10.859375 97.56640625 C-3.04932095 99.66983868 6.48619361 99.83694393 13.9375 96.4375 C22.0970247 91.54178518 26.90414595 84.54259716 29.375 75.4375 C32.51001846 60.56320046 32.86831174 43.73829555 25.125 30.1875 C20.93769531 23.981764 15.57872589 19.68022105 8.375 17.4375 C5.62561423 17.15678193 3.17092815 17.0052263 0.4375 17.0625 C-0.62017578 17.0788147 -0.62017578 17.0788147 -1.69921875 17.09545898 C-11.23124378 17.38781855 -17.20697321 20.34765303 -23.625 27.4375 Z " fill="#000000" transform="translate(576.625,150.5625)"/>
<path d="M0 0 C11.4159375 -0.12375 11.4159375 -0.12375 23.0625 -0.25 C25.43187744 -0.28641602 27.80125488 -0.32283203 30.24243164 -0.36035156 C58.97439639 -0.6180766 58.97439639 -0.6180766 69.359375 8.3671875 C77.42841415 16.39780266 80.86590129 23.79744634 81.1875 35.375 C81.0409458 44.96615796 78.36660378 53.66616452 71.75 60.75 C62.08613192 69.73821629 49.85192446 70.32447174 37.20703125 70.1953125 C36.25485718 70.19329834 35.30268311 70.19128418 34.32165527 70.18920898 C30.81855339 70.17886999 27.31552103 70.15094915 23.8125 70.125 C12.0253125 70.063125 12.0253125 70.063125 0 70 C0 46.9 0 23.8 0 0 Z " fill="#010101" transform="translate(131,693)"/>
<path d="M0 0 C0.65871094 0.43183594 1.31742188 0.86367188 1.99609375 1.30859375 C2.70636719 1.77136719 3.41664062 2.23414063 4.1484375 2.7109375 C12.29687511 8.9171032 15.86135994 18.04383047 17.58065796 27.86056519 C18.44399067 35.02604278 18.23743049 42.23880031 18.19140625 49.4453125 C18.18766862 51.17836848 18.1848252 52.91142661 18.18283081 54.64448547 C18.17525335 59.17029826 18.15565656 63.69597938 18.13342285 68.22174072 C18.11283646 72.85418925 18.10380193 77.48665938 18.09375 82.11914062 C18.07240417 91.18235834 18.03727117 100.24544442 17.99609375 109.30859375 C11.39609375 109.30859375 4.79609375 109.30859375 -2.00390625 109.30859375 C-2.01848877 107.05869629 -2.03307129 104.80879883 -2.0480957 102.49072266 C-2.09860962 95.02674853 -2.1652336 87.56297935 -2.23962116 80.09920692 C-2.28419954 75.57738682 -2.32348271 71.05565423 -2.3503418 66.53369141 C-2.37650055 62.16334375 -2.4169902 57.79333511 -2.46709251 53.4231987 C-2.48367671 51.76243711 -2.49524326 50.10161699 -2.50152016 48.44078445 C-2.26772598 33.49794372 -2.26772598 33.49794372 -8.37890625 20.30859375 C-15.27711498 15.05281567 -23.69264872 15.30939322 -32.00390625 16.30859375 C-39.19288932 18.2339191 -45.27670171 21.82013184 -51.26171875 26.171875 C-53.00390625 27.30859375 -53.00390625 27.30859375 -55.00390625 27.30859375 C-55.00390625 54.36859375 -55.00390625 81.42859375 -55.00390625 109.30859375 C-61.27390625 109.30859375 -67.54390625 109.30859375 -74.00390625 109.30859375 C-74.00390625 73.33859375 -74.00390625 37.36859375 -74.00390625 0.30859375 C-67.73390625 0.30859375 -61.46390625 0.30859375 -55.00390625 0.30859375 C-55.00390625 3.60859375 -55.00390625 6.90859375 -55.00390625 10.30859375 C-54.33746094 9.86128906 -53.67101563 9.41398438 -52.984375 8.953125 C-38.08387304 -0.82077069 -17.48083863 -9.0052805 0 0 Z " fill="#000000" transform="translate(1427.00390625,742.69140625)"/>
<path d="M0 0 C6.27 0 12.54 0 19 0 C19.01981934 2.12348877 19.03963867 4.24697754 19.06005859 6.43481445 C19.12726791 13.48763471 19.20490106 20.54031332 19.28752708 27.59296894 C19.33725897 31.86476267 19.38358904 36.1365344 19.421875 40.40844727 C19.45902225 44.53883485 19.50545764 48.66902725 19.55806351 52.79924583 C19.57645241 54.36708301 19.59161614 55.93496178 19.60334396 57.50286293 C19.19353513 74.2987876 19.19353513 74.2987876 26 89 C31.93361568 94.21438954 39.42922895 93.62439165 46.90625 93.22216797 C52.34832482 92.644709 57.2373061 90.59835219 62 88 C62.81299561 87.65090576 63.62599121 87.30181152 64.46362305 86.94213867 C67.65679265 85.26116902 69.67879472 83.78554653 72 81 C73.49598856 74.8806897 73.30642534 68.86485945 73.1953125 62.59765625 C73.19910252 60.79160658 73.20729571 58.98556125 73.21969604 57.17955017 C73.240456 52.44243507 73.2016533 47.70763303 73.15020752 42.9708252 C73.10825824 38.13091396 73.12295803 33.29120582 73.1328125 28.45117188 C73.14381325 18.96658025 73.0866195 9.48420299 73 0 C79.27 0 85.54 0 92 0 C92 36.3 92 72.6 92 110 C85.73 110 79.46 110 73 110 C72.67 106.37 72.34 102.74 72 99 C70.576875 100.051875 69.15375 101.10375 67.6875 102.1875 C54.37362281 111.52425882 41.94313242 113.39771199 26 112 C18.16852033 110.20696102 11.74823594 106.5510421 7 100 C1.86166348 91.59181297 -0.32224399 83.33455662 -0.22705078 73.56445312 C-0.22734283 72.76349213 -0.22763489 71.96253113 -0.22793579 71.13729858 C-0.22655455 68.51850129 -0.21105086 65.89999692 -0.1953125 63.28125 C-0.19157807 61.45422521 -0.18873313 59.62719841 -0.18673706 57.8001709 C-0.17913444 53.01292299 -0.1595152 48.22579821 -0.1373291 43.43859863 C-0.11679774 38.54502019 -0.10771981 33.65142168 -0.09765625 28.7578125 C-0.07626587 19.17181245 -0.0411115 9.58593577 0 0 Z " fill="#000000" transform="translate(1348,1345)"/>
<path d="M0 0 C7.26 0 14.52 0 22 0 C24.29881272 5.8695309 26.59736724 11.73916172 28.89529419 17.60903931 C29.71310884 19.69793215 30.5310404 21.78677922 31.34909058 23.87557983 C35.67517773 34.92233977 39.9955876 45.97112611 44.27734375 57.03515625 C44.60327515 57.87664215 44.92920654 58.71812805 45.26501465 59.58511353 C46.79529891 63.53630281 48.32297115 67.48846492 49.84619141 71.44238281 C50.38823316 72.84314276 50.93038145 74.2438615 51.47265625 75.64453125 C51.93937744 76.85471924 52.40609863 78.06490723 52.88696289 79.31176758 C53.74727415 81.87488079 53.74727415 81.87488079 55 83 C55.19441681 82.49112244 55.38883362 81.98224487 55.58914185 81.45794678 C65.97649559 54.27269781 76.41507736 27.10897389 87 0 C93.93 0 100.86 0 108 0 C103.09003505 13.2759732 97.89248271 26.4247799 92.625 39.5625 C91.97485931 41.18652237 91.97485931 41.18652237 91.31158447 42.84335327 C83.69762548 61.86008984 75.97624663 80.83157082 68.15533447 99.76409912 C66.74968733 103.16850604 65.36798242 106.58004394 64 110 C57.4 110 50.8 110 44 110 C39.5908017 99.05431863 35.18258972 88.10824136 30.77600956 77.1615057 C28.72878454 72.07593898 26.68116425 66.99053224 24.63256836 61.90551758 C7.92746538 20.43871433 7.92746538 20.43871433 0 0 Z " fill="#000000" transform="translate(1348,154)"/>
<path d="M0 0 C6.27 0 12.54 0 19 0 C19 10.23 19 20.46 19 31 C31.54 31 44.08 31 57 31 C57 36.28 57 41.56 57 47 C44.46 47 31.92 47 19 47 C19.08888565 54.36581309 19.17962168 61.73123087 19.28729248 69.09673309 C19.33694416 72.52774719 19.38342919 75.95873306 19.421875 79.38989258 C19.46628322 83.33952204 19.52579854 87.28885888 19.5859375 91.23828125 C19.59748871 92.45018631 19.60903992 93.66209137 19.62094116 94.91072083 C19.63265661 109.45712432 19.63265661 109.45712432 26 122 C30.13412453 124.15983885 33.75546349 124.26874051 38.375 124.25 C39.64085937 124.25515625 40.90671875 124.2603125 42.2109375 124.265625 C46.06966647 123.99511617 49.30834562 123.1101395 53 122 C54.32 122 55.64 122 57 122 C57 127.61 57 133.22 57 139 C44.47617911 144.00952836 28.21314953 144.73135358 15.625 139.4375 C8.57354423 135.34310633 3.651844 128.93374676 1.47265625 121.140625 C1.31667969 120.43421875 1.16070313 119.7278125 1 119 C0.82759293 118.26940872 0.65518585 117.53881744 0.47755432 116.78608704 C-0.07369386 113.57006463 -0.11967168 110.545664 -0.11352539 107.28198242 C-0.11367142 106.62776306 -0.11381744 105.9735437 -0.1139679 105.29949951 C-0.11327494 103.15145474 -0.10551164 101.00349825 -0.09765625 98.85546875 C-0.09578988 97.36045886 -0.09436701 95.86544835 -0.09336853 94.37043762 C-0.08956064 90.44628189 -0.07974518 86.5221635 -0.06866455 82.59802246 C-0.05841321 78.58944199 -0.05386294 74.58085545 -0.04882812 70.57226562 C-0.0381213 62.71482666 -0.02106572 54.85741798 0 47 C-3.96 47 -7.92 47 -12 47 C-12 41.72 -12 36.44 -12 31 C-8.04 31 -4.08 31 0 31 C0 20.77 0 10.54 0 0 Z " fill="#000000" transform="translate(1094,123)"/>
<path d="M0 0 C6.27 0 12.54 0 19 0 C19 10.23 19 20.46 19 31 C31.54 31 44.08 31 57 31 C57 36.28 57 41.56 57 47 C44.46 47 31.92 47 19 47 C19.08888565 54.36581309 19.17962168 61.73123087 19.28729248 69.09673309 C19.33694416 72.52774719 19.38342919 75.95873306 19.421875 79.38989258 C19.46628322 83.33952204 19.52579854 87.28885888 19.5859375 91.23828125 C19.59748871 92.45018631 19.60903992 93.66209137 19.62094116 94.91072083 C19.63265661 109.45712432 19.63265661 109.45712432 26 122 C30.13412453 124.15983885 33.75546349 124.26874051 38.375 124.25 C39.64085937 124.25515625 40.90671875 124.2603125 42.2109375 124.265625 C46.06966647 123.99511617 49.30834562 123.1101395 53 122 C54.32 122 55.64 122 57 122 C57 127.61 57 133.22 57 139 C49.61919046 141.95232382 43.03461171 142.20778286 35.1875 142.25 C33.76727539 142.2809375 33.76727539 142.2809375 32.31835938 142.3125 C22.24772104 142.36794742 15.28372518 140.17788571 7.9453125 133.171875 C-0.73627673 123.47917698 -0.28635441 110.73030571 -0.1953125 98.46484375 C-0.19157537 96.97555228 -0.18873171 95.48625832 -0.18673706 93.9969635 C-0.17915567 90.10569287 -0.15955544 86.21457511 -0.1373291 82.32336426 C-0.11675127 78.34124824 -0.10770999 74.35910716 -0.09765625 70.37695312 C-0.07630349 62.58456625 -0.04223523 54.79230467 0 47 C-3.96 47 -7.92 47 -12 47 C-12 41.72 -12 36.44 -12 31 C-8.04 31 -4.08 31 0 31 C0 20.77 0 10.54 0 0 Z " fill="#000000" transform="translate(1227,123)"/>
<path d="M0 0 C6.27 0 12.54 0 19 0 C19 4.62 19 9.24 19 14 C19.95519531 13.32453125 20.91039062 12.6490625 21.89453125 11.953125 C36.80377992 1.57152565 48.68189517 -1.56481984 67 0 C67.99 0.495 67.99 0.495 69 1 C69 7.6 69 14.2 69 21 C66.69 20.67 64.38 20.34 62 20 C50.69095216 19.10613829 39.95193178 18.89740033 30 25 C28.79787872 25.53506165 28.79787872 25.53506165 27.57147217 26.08093262 C24.40187065 27.76286225 22.33583908 29.25564536 20 32 C18.50880774 37.90191778 18.69313149 43.69188715 18.8046875 49.74609375 C18.80089723 51.48488323 18.79270348 53.2236682 18.78030396 54.9624176 C18.75954892 59.52201583 18.79833786 64.0792099 18.84979248 68.63848877 C18.89175029 73.29743164 18.87704112 77.95616396 18.8671875 82.61523438 C18.85618841 91.74439126 18.91336964 100.87124699 19 110 C12.73 110 6.46 110 0 110 C0 73.7 0 37.4 0 0 Z " fill="#000000" transform="translate(707,743)"/>
<path d="M0 0 C6.27 0 12.54 0 19 0 C19 4.62 19 9.24 19 14 C19.95519531 13.32453125 20.91039062 12.6490625 21.89453125 11.953125 C36.80377992 1.57152565 48.68189517 -1.56481984 67 0 C67.99 0.495 67.99 0.495 69 1 C69 7.6 69 14.2 69 21 C66.69 20.67 64.38 20.34 62 20 C50.69095216 19.10613829 39.95193178 18.89740033 30 25 C28.79787872 25.53506165 28.79787872 25.53506165 27.57147217 26.08093262 C24.40187065 27.76286225 22.33583908 29.25564536 20 32 C18.50880774 37.90191778 18.69313149 43.69188715 18.8046875 49.74609375 C18.80089723 51.48488323 18.79270348 53.2236682 18.78030396 54.9624176 C18.75954892 59.52201583 18.79833786 64.0792099 18.84979248 68.63848877 C18.89175029 73.29743164 18.87704112 77.95616396 18.8671875 82.61523438 C18.85618841 91.74439126 18.91336964 100.87124699 19 110 C12.73 110 6.46 110 0 110 C0 73.7 0 37.4 0 0 Z " fill="#000000" transform="translate(376,743)"/>
<path d="M0 0 C6.27 0 12.54 0 19 0 C19 50.16 19 100.32 19 152 C12.73 152 6.46 152 0 152 C0 101.84 0 51.68 0 0 Z " fill="#000000" transform="translate(1294,1302)"/>
<path d="M0 0 C6.27 0 12.54 0 19 0 C19 36.3 19 72.6 19 110 C12.73 110 6.46 110 0 110 C0 73.7 0 37.4 0 0 Z " fill="#000000" transform="translate(1306,154)"/>
<path d="M0 0 C6.27 0 12.54 0 19 0 C19 36.3 19 72.6 19 110 C12.73 110 6.46 110 0 110 C0 73.7 0 37.4 0 0 Z " fill="#000000" transform="translate(1172,154)"/>
<path d="M0 0 C6.27 0 12.54 0 19 0 C19 35.97 19 71.94 19 109 C12.73 109 6.46 109 0 109 C0 73.03 0 37.06 0 0 Z " fill="#000000" transform="translate(1298,743)"/>
<path d="M0 0 C6.93 0 13.86 0 21 0 C21 6.6 21 13.2 21 20 C14.07 20 7.14 20 0 20 C0 13.4 0 6.8 0 0 Z " fill="#000000" transform="translate(1297,706)"/>
<path d="M0 0 C6.93 0 13.86 0 21 0 C21 6.6 21 13.2 21 20 C14.07 20 7.14 20 0 20 C0 13.4 0 6.8 0 0 Z " fill="#000000" transform="translate(1305,117)"/>
<path d="M0 0 C6.93 0 13.86 0 21 0 C21 6.6 21 13.2 21 20 C14.07 20 7.14 20 0 20 C0 13.4 0 6.8 0 0 Z " fill="#000000" transform="translate(1171,117)"/>
</svg>
